<svg xmlns="http://www.w3.org/2000/svg" width="1200" height="630" viewBox="0 0 1200 630"><defs><linearGradient id="bg5" x1="0%" x2="100%" y1="0%" y2="100%"><stop offset="0%" style="stop-color:#42b883;stop-opacity:1"/><stop offset="50%" style="stop-color:#35495e;stop-opacity:1"/><stop offset="100%" style="stop-color:#42b883;stop-opacity:1"/></linearGradient></defs><rect width="1200" height="630" fill="url(#bg5)"/><g transform="translate(800, 100)"><polygon fill="rgba(255,255,255,0.2)" points="100 0 200 173 0 173"/><polygon fill="rgba(255,255,255,0.3)" points="100 35 165 145 35 145"/></g><g transform="translate(100, 150)"><rect width="180" height="60" fill="rgba(255,255,255,0.9)" rx="8"/><text x="90" y="38" fill="#35495e" font-family="monospace" font-size="18" text-anchor="middle">ref()</text></g><g transform="translate(100, 230)"><rect width="180" height="60" fill="rgba(255,255,255,0.85)" rx="8"/><text x="90" y="38" fill="#35495e" font-family="monospace" font-size="18" text-anchor="middle">reactive()</text></g><g transform="translate(100, 310)"><rect width="180" height="60" fill="rgba(255,255,255,0.8)" rx="8"/><text x="90" y="38" fill="#35495e" font-family="monospace" font-size="18" text-anchor="middle">computed()</text></g><g transform="translate(100, 390)"><rect width="180" height="60" fill="rgba(255,255,255,0.75)" rx="8"/><text x="90" y="38" fill="#35495e" font-family="monospace" font-size="18" text-anchor="middle">watch()</text></g><rect width="400" height="250" x="350" y="200" fill="rgba(255,255,255,0.1)" rx="15"/><text x="550" y="240" fill="#fff" font-family="system-ui, sans-serif" font-size="20" text-anchor="middle">Composables</text><rect width="150" height="50" x="380" y="270" fill="rgba(255,255,255,0.2)" rx="8"/><text x="455" y="300" fill="#fff" font-family="monospace" font-size="14" text-anchor="middle">useCounter()</text><rect width="170" height="50" x="550" y="270" fill="rgba(255,255,255,0.2)" rx="8"/><text x="635" y="300" fill="#fff" font-family="monospace" font-size="14" text-anchor="middle">useAsyncData()</text><rect width="160" height="50" x="380" y="340" fill="rgba(255,255,255,0.2)" rx="8"/><text x="460" y="370" fill="#fff" font-family="monospace" font-size="14" text-anchor="middle">useStorage()</text><rect width="150" height="50" x="560" y="340" fill="rgba(255,255,255,0.2)" rx="8"/><text x="635" y="370" fill="#fff" font-family="monospace" font-size="14" text-anchor="middle">useTheme()</text><text x="600" y="530" fill="#fff" font-family="system-ui, -apple-system, sans-serif" font-size="38" font-weight="bold" text-anchor="middle">Vue 3 Composition API</text><text x="600" y="580" fill="rgba(255,255,255,0.8)" font-family="system-ui, -apple-system, sans-serif" font-size="24" text-anchor="middle">Best Practices for Modern Development</text></svg>