<svg xmlns="http://www.w3.org/2000/svg" xmlns:xlink="http://www.w3.org/1999/xlink" width="1200" height="630" viewBox="0 0 1200 630"><defs><linearGradient id="bg-gradient-16" x1="0%" x2="100%" y1="0%" y2="100%"><stop offset="0%" style="stop-color:#00dc82;stop-opacity:1"/><stop offset="100%" style="stop-color:#00c16a;stop-opacity:1"/></linearGradient><linearGradient id="secondary-gradient-16" x1="0%" x2="100%" y1="0%" y2="100%"><stop offset="0%" style="stop-color:#00dc82;stop-opacity:.3"/><stop offset="100%" style="stop-color:#00c16a;stop-opacity:.1"/></linearGradient><pattern id="speed-lines-16" width="100" height="10" x="0" y="0" patternUnits="userSpaceOnUse"><line x1="0" x2="80" y1="5" y2="5" stroke="rgba(255,255,255,0.1)" stroke-width="1"/></pattern><filter id="glow-16"><feGaussianBlur result="coloredBlur" stdDeviation="3"/><feMerge><feMergeNode in="coloredBlur"/><feMergeNode in="SourceGraphic"/></feMerge></filter></defs><rect width="1200" height="630" fill="url(#bg-gradient-16)"/><rect width="1200" height="630" fill="url(#speed-lines-16)" opacity=".5"/><circle cx="100" cy="100" r="150" fill="url(#secondary-gradient-16)"/><circle cx="1100" cy="530" r="200" fill="url(#secondary-gradient-16)"/><circle cx="600" cy="315" r="300" fill="url(#secondary-gradient-16)" opacity=".3"/><path fill="none" stroke="rgba(255,255,255,0.2)" stroke-width="8" d="M 200 500 A 150 150 0 0 1 500 400"/><path fill="none" stroke="rgba(255,255,255,0.5)" stroke-linecap="round" stroke-width="8" d="M 200 500 A 150 150 0 0 1 480 420"/><line x1="350" x2="420" y1="450" y2="400" stroke="#fff" stroke-linecap="round" stroke-width="4" filter="url(#glow-16)"/><circle cx="350" cy="450" r="8" fill="#fff"/><g filter="url(#glow-16)" transform="translate(950, 350)"><path fill="#fff" d="M 50 0 L 10 60 L 40 60 L 30 120 L 80 50 L 50 50 Z" opacity=".9"/></g><g opacity=".3" transform="translate(850, 150)"><rect width="60" height="80" x="0" y="0" fill="rgba(255,255,255,0.3)" rx="4"/><rect width="60" height="60" x="70" y="20" fill="rgba(255,255,255,0.3)" rx="4"/><rect width="60" height="70" x="140" y="10" fill="rgba(255,255,255,0.3)" rx="4"/><rect width="60" height="90" x="210" y="-10" fill="rgba(255,255,255,0.3)" rx="4"/></g><text x="600" y="280" fill="#fff" filter="url(#glow-16)" font-family="system-ui, -apple-system, sans-serif" font-size="56" font-weight="800" text-anchor="middle">Nuxt 4 SSR</text><text x="600" y="350" fill="#fff" filter="url(#glow-16)" font-family="system-ui, -apple-system, sans-serif" font-size="52" font-weight="700" text-anchor="middle">Performance Optimization</text><text x="600" y="410" fill="rgba(255,255,255,0.9)" font-family="system-ui, -apple-system, sans-serif" font-size="28" font-weight="400" text-anchor="middle">Lightning-fast page loads &amp; improved SEO</text><text x="600" y="580" fill="rgba(255,255,255,0.7)" font-family="system-ui, -apple-system, sans-serif" font-size="20" font-weight="500" text-anchor="middle">mubaidr.js.org</text><circle cx="100" cy="550" r="4" fill="rgba(255,255,255,0.4)"/><circle cx="120" cy="560" r="3" fill="rgba(255,255,255,0.3)"/><circle cx="1080" cy="100" r="4" fill="rgba(255,255,255,0.4)"/><circle cx="1100" cy="90" r="3" fill="rgba(255,255,255,0.3)"/></svg>