<svg xmlns="http://www.w3.org/2000/svg" width="1200" height="630" viewBox="0 0 1200 630"><defs><linearGradient id="bg" x1="0%" x2="100%" y1="0%" y2="100%"><stop offset="0%" style="stop-color:#0f172a"/><stop offset="100%" style="stop-color:#1e293b"/></linearGradient><linearGradient id="accent" x1="0%" x2="100%" y1="0%" y2="100%"><stop offset="0%" style="stop-color:#22d3ee"/><stop offset="100%" style="stop-color:#3b82f6"/></linearGradient><filter id="glow" width="140%" height="140%" x="-20%" y="-20%"><feGaussianBlur result="blur" stdDeviation="3"/><feComposite in="SourceGraphic" in2="blur" operator="over"/></filter></defs><rect width="1200" height="630" fill="url(#bg)"/><g stroke="url(#accent)" stroke-width="1" opacity=".1"><line x1="0" x2="1200" y1="100" y2="100"/><line x1="0" x2="1200" y1="200" y2="200"/><line x1="0" x2="1200" y1="300" y2="300"/><line x1="0" x2="1200" y1="400" y2="400"/><line x1="0" x2="1200" y1="500" y2="500"/></g><g fill="none" stroke="url(#accent)" stroke-width="2"><circle cx="200" cy="200" r="30" stroke-width="2"/><circle cx="600" cy="180" r="25" stroke-width="2"/><circle cx="1000" cy="200" r="30" stroke-width="2"/><circle cx="400" cy="300" r="20" stroke-width="2"/><circle cx="800" cy="280" r="25" stroke-width="2"/><line x1="200" x2="600" y1="200" y2="180"/><line x1="600" x2="1000" y1="180" y2="200"/><line x1="400" x2="800" y1="300" y2="280"/><line x1="200" x2="400" y1="200" y2="300"/><line x1="600" x2="400" y1="180" y2="300"/><line x1="600" x2="800" y1="180" y2="280"/><line x1="1000" x2="800" y1="200" y2="280"/></g><g fill="none" stroke="url(#accent)" stroke-width="2" transform="translate(550, 240)"><rect width="100" height="60" x="0" y="0" stroke-width="2" rx="8"/><path stroke-linecap="round" stroke-linejoin="round" stroke-width="2" d="M30 20 L50 40 L70 20"/></g><text x="100" y="450" fill="#fff" font-family="system-ui, -apple-system, sans-serif" font-size="42" font-weight="bold">Edge Computing &amp; Serverless</text><text x="100" y="500" fill="url(#accent)" font-family="system-ui, -apple-system, sans-serif" font-size="32" font-weight="600">The Complete Guide for 2026</text><text x="100" y="560" fill="#94a3b8" font-family="system-ui, -apple-system, sans-serif" font-size="18">By Mubaidr • 10 min read</text></svg>