<svg xmlns="http://www.w3.org/2000/svg" width="1200" height="630" viewBox="0 0 1200 630"><defs><linearGradient id="bg" x1="0%" x2="100%" y1="0%" y2="100%"><stop offset="0%" style="stop-color:#064e3b"/><stop offset="100%" style="stop-color:#065f46"/></linearGradient><linearGradient id="accent" x1="0%" x2="100%" y1="0%" y2="100%"><stop offset="0%" style="stop-color:#34d399"/><stop offset="100%" style="stop-color:#10b981"/></linearGradient><linearGradient id="accessibility" x1="0%" x2="100%" y1="0%" y2="100%"><stop offset="0%" style="stop-color:#22d3ee"/><stop offset="100%" style="stop-color:#3b82f6"/></linearGradient></defs><rect width="1200" height="630" fill="url(#bg)"/><g fill="none" stroke="url(--accessibility)" stroke-width="3" transform="translate(900, 150)"><circle cx="60" cy="40" r="15" stroke-width="3"/><path stroke-linecap="round" stroke-width="3" d="M60 55 L60 85"/><path stroke-linecap="round" stroke-width="3" d="M60 85 L30 120"/><path stroke-linecap="round" stroke-width="3" d="M60 85 L90 120"/><path stroke-linecap="round" stroke-width="3" d="M60 70 L30 85"/><circle cx="30" cy="125" r="8" stroke-width="2"/><circle cx="90" cy="125" r="8" stroke-width="2"/></g><g fill="none" stroke="url(--accent)" stroke-width="2" transform="translate(150, 200)"><rect width="120" height="60" x="0" y="0" stroke-width="2" rx="8"/><text x="60" y="35" fill="url(--accent)" font-family="system-ui, sans-serif" font-size="24" font-weight="bold">A</text><rect width="120" height="60" x="140" y="0" stroke-width="2" rx="8"/><text x="200" y="35" fill="url(--accent)" font-family="system-ui, sans-serif" font-size="24" font-weight="bold">AA</text><rect width="120" height="60" x="280" y="0" stroke-width="2" rx="8"/><text x="340" y="35" fill="url(--accent)" font-family="system-ui, sans-serif" font-size="24" font-weight="bold">AAA</text></g><g fill="none" stroke="url(--accessibility)" stroke-width="2" transform="translate(200, 300)"><rect width="100" height="70" x="0" y="0" stroke-width="2" rx="8"/><text x="15" y="25" fill="#94a3b8" font-family="monospace" font-size="10">&lt;h1&gt;Title&lt;/h1&gt;</text><text x="15" y="45" fill="#94a3b8" font-family="monospace" font-size="10">&lt;p&gt;Content&lt;/p&gt;</text><text x="15" y="60" fill="#94a3b8" font-family="monospace" font-size="10">&lt;button&gt;Click&lt;/button&gt;</text></g><text x="100" y="480" fill="#fff" font-family="system-ui, -apple-system, sans-serif" font-size="42" font-weight="bold">Web Accessibility WCAG 2026</text><text x="100" y="530" fill="url(--accent)" font-family="system-ui, -apple-system, sans-serif" font-size="30" font-weight="600">Complete Compliance Guide</text><text x="100" y="580" fill="#94a3b8" font-family="system-ui, -apple-system, sans-serif" font-size="18">By Mubaidr • 11 min read</text></svg>