<svg width="1200" height="630" viewBox="0 0 1200 630" xmlns="http://www.w3.org/2000/svg">
  <defs>
    <linearGradient id="bg6" x1="0%" y1="0%" x2="100%" y2="100%">
      <stop offset="0%" style="stop-color:#007acc;stop-opacity:1" />
      <stop offset="100%" style="stop-color:#003366;stop-opacity:1" />
    </linearGradient>
  </defs>

  <!-- Background -->
  <rect width="1200" height="630" fill="url(#bg6)"/>

  <!-- TypeScript logo -->
  <g transform="translate(850, 150)">
    <rect width="200" height="200" rx="20" fill="white"/>
    <text x="100" y="150" font-family="system-ui, sans-serif" font-size="120" font-weight="bold" fill="#007acc" text-anchor="middle">TS</text>
  </g>

  <!-- Node.js icon -->
  <g transform="translate(100, 200)">
    <polygon points="100,0 200,50 200,150 100,200 0,150 0,50" fill="rgba(255,255,255,0.15)" stroke="rgba(255,255,255,0.3)" stroke-width="2"/>
    <text x="100" y="110" font-family="monospace" font-size="24" fill="white" text-anchor="middle">Node</text>
  </g>

  <!-- Production ready indicators -->
  <g transform="translate(350, 180)">
    <rect width="400" height="50" rx="8" fill="rgba(255,255,255,0.2)"/>
    <circle cx="30" cy="25" r="15" fill="#4ade80"/>
    <text x="60" y="32" font-family="system-ui, sans-serif" font-size="18" fill="white">Type Safety ✓</text>
  </g>

  <g transform="translate(350, 250)">
    <rect width="400" height="50" rx="8" fill="rgba(255,255,255,0.2)"/>
    <circle cx="30" cy="25" r="15" fill="#4ade80"/>
    <text x="60" y="32" font-family="system-ui, sans-serif" font-size="18" fill="white">Error Handling ✓</text>
  </g>

  <g transform="translate(350, 320)">
    <rect width="400" height="50" rx="8" fill="rgba(255,255,255,0.2)"/>
    <circle cx="30" cy="25" r="15" fill="#4ade80"/>
    <text x="60" y="32" font-family="system-ui, sans-serif" font-size="18" fill="white">Production Build ✓</text>
  </g>

  <g transform="translate(350, 390)">
    <rect width="400" height="50" rx="8" fill="rgba(255,255,255,0.2)"/>
    <circle cx="30" cy="25" r="15" fill="#4ade80"/>
    <text x="60" y="32" font-family="system-ui, sans-serif" font-size="18" fill="white">Testing Ready ✓</text>
  </g>

  <!-- Title -->
  <text x="600" y="530" font-family="system-ui, -apple-system, sans-serif" font-size="42" font-weight="bold" fill="white" text-anchor="middle">TypeScript + Node.js</text>
  <text x="600" y="580" font-family="system-ui, -apple-system, sans-serif" font-size="24" fill="rgba(255,255,255,0.8)" text-anchor="middle">Production Complete Guide</text>
</svg>
