<svg xmlns="http://www.w3.org/2000/svg" width="1200" height="630" viewBox="0 0 1200 630"><defs><linearGradient id="bg6" x1="0%" x2="100%" y1="0%" y2="100%"><stop offset="0%" style="stop-color:#007acc;stop-opacity:1"/><stop offset="100%" style="stop-color:#036;stop-opacity:1"/></linearGradient></defs><rect width="1200" height="630" fill="url(#bg6)"/><g transform="translate(850, 150)"><rect width="200" height="200" fill="#fff" rx="20"/><text x="100" y="150" fill="#007acc" font-family="system-ui, sans-serif" font-size="120" font-weight="bold" text-anchor="middle">TS</text></g><g transform="translate(100, 200)"><polygon fill="rgba(255,255,255,0.15)" stroke="rgba(255,255,255,0.3)" stroke-width="2" points="100 0 200 50 200 150 100 200 0 150 0 50"/><text x="100" y="110" fill="#fff" font-family="monospace" font-size="24" text-anchor="middle">Node</text></g><g transform="translate(350, 180)"><rect width="400" height="50" fill="rgba(255,255,255,0.2)" rx="8"/><circle cx="30" cy="25" r="15" fill="#4ade80"/><text x="60" y="32" fill="#fff" font-family="system-ui, sans-serif" font-size="18">Type Safety ✓</text></g><g transform="translate(350, 250)"><rect width="400" height="50" fill="rgba(255,255,255,0.2)" rx="8"/><circle cx="30" cy="25" r="15" fill="#4ade80"/><text x="60" y="32" fill="#fff" font-family="system-ui, sans-serif" font-size="18">Error Handling ✓</text></g><g transform="translate(350, 320)"><rect width="400" height="50" fill="rgba(255,255,255,0.2)" rx="8"/><circle cx="30" cy="25" r="15" fill="#4ade80"/><text x="60" y="32" fill="#fff" font-family="system-ui, sans-serif" font-size="18">Production Build ✓</text></g><g transform="translate(350, 390)"><rect width="400" height="50" fill="rgba(255,255,255,0.2)" rx="8"/><circle cx="30" cy="25" r="15" fill="#4ade80"/><text x="60" y="32" fill="#fff" font-family="system-ui, sans-serif" font-size="18">Testing Ready ✓</text></g><text x="600" y="530" fill="#fff" font-family="system-ui, -apple-system, sans-serif" font-size="42" font-weight="bold" text-anchor="middle">TypeScript + Node.js</text><text x="600" y="580" fill="rgba(255,255,255,0.8)" font-family="system-ui, -apple-system, sans-serif" font-size="24" text-anchor="middle">Production Complete Guide</text></svg>