<svg xmlns="http://www.w3.org/2000/svg" width="1200" height="630" viewBox="0 0 1200 630"><defs><linearGradient id="bg" x1="0%" x2="100%" y1="0%" y2="100%"><stop offset="0%" style="stop-color:#1e1b4b"/><stop offset="100%" style="stop-color:#312e81"/></linearGradient><linearGradient id="accent" x1="0%" x2="100%" y1="0%" y2="100%"><stop offset="0%" style="stop-color:#a78bfa"/><stop offset="100%" style="stop-color:#f472b6"/></linearGradient><linearGradient id="token" x1="0%" x2="100%" y1="0%" y2="0%"><stop offset="0%" style="stop-color:#22d3ee"/><stop offset="100%" style="stop-color:#3b82f6"/></linearGradient></defs><rect width="1200" height="630" fill="url(#bg)"/><g transform="translate(150, 150)"><rect width="280" height="100" x="0" y="0" fill="rgba(255,255,255,0.05)" stroke="url(#token)" stroke-width="2" rx="12"/><text x="20" y="35" fill="#a78bfa" font-family="monospace" font-size="14">--color-primary</text><rect width="60" height="30" x="20" y="50" fill="url(#token)" rx="4"/><text x="100" y="70" fill="#94a3b8" font-family="monospace" font-size="12">#3B82F6</text><rect width="280" height="100" x="320" y="0" fill="rgba(255,255,255,0.05)" stroke="url(--token)" stroke-width="2" rx="12"/><text x="340" y="35" fill="#a78bfa" font-family="monospace" font-size="14">--spacing-4</text><text x="340" y="70" fill="#94a3b8" font-family="monospace" font-size="12">1rem (16px)</text><rect width="280" height="100" x="640" y="0" fill="rgba(255,255,255,0.05)" stroke="url(--token)" stroke-width="2" rx="12"/><text x="660" y="35" fill="#a78bfa" font-family="monospace" font-size="14">--font-size-lg</text><text x="660" y="70" fill="#94a3b8" font-family="monospace" font-size="12">1.125rem</text></g><g fill="none" stroke="url(--token)" stroke-width="3" transform="translate(900, 200)"><circle cx="60" cy="60" r="50" stroke-width="3"/><path stroke-width="2" d="M40 60 L60 40 L80 60 L60 80 Z"/></g><text x="100" y="450" fill="#fff" font-family="system-ui, -apple-system, sans-serif" font-size="44" font-weight="bold">Design Tokens &amp; Tailwind v4</text><text x="100" y="500" fill="url(--accent)" font-family="system-ui, -apple-system, sans-serif" font-size="30" font-weight="600">The Complete Guide</text><text x="100" y="560" fill="#94a3b8" font-family="system-ui, -apple-system, sans-serif" font-size="18">By Mubaidr • 9 min read</text></svg>