<svg xmlns="http://www.w3.org/2000/svg" width="1200" height="630" viewBox="0 0 1200 630"><defs><linearGradient id="bg11" x1="0%" x2="100%" y1="0%" y2="100%"><stop offset="0%" style="stop-color:#3178c6;stop-opacity:1"/><stop offset="100%" style="stop-color:#235a97;stop-opacity:1"/></linearGradient></defs><rect width="1200" height="630" fill="url(#bg11)"/><g transform="translate(850, 120)"><rect width="200" height="200" fill="#fff" rx="20"/><text x="100" y="150" fill="#3178c6" font-family="system-ui, sans-serif" font-size="120" font-weight="bold" text-anchor="middle">TS</text></g><g transform="translate(100, 150)"><rect width="650" height="350" fill="rgba(255,255,255,0.1)" rx="15"/><rect width="180" height="90" x="30" y="30" fill="rgba(255,255,255,0.15)" rx="10"/><text x="120" y="60" fill="#fff" font-family="monospace" font-size="14" text-anchor="middle">Conditional</text><text x="120" y="85" fill="#fff" font-family="monospace" font-size="14" text-anchor="middle">Types</text><text x="120" y="105" fill="rgba(255,255,255,0.7)" font-family="monospace" font-size="11" text-anchor="middle">T extends U ? X : Y</text><rect width="180" height="90" x="230" y="30" fill="rgba(255,255,255,0.15)" rx="10"/><text x="320" y="60" fill="#fff" font-family="monospace" font-size="14" text-anchor="middle">Template</text><text x="320" y="85" fill="#fff" font-family="monospace" font-size="14" text-anchor="middle">Literals</text><text x="320" y="105" fill="rgba(255,255,255,0.7)" font-family="monospace" font-size="11" text-anchor="middle">`on${Event}`</text><rect width="180" height="90" x="430" y="30" fill="rgba(255,255,255,0.15)" rx="10"/><text x="520" y="60" fill="#fff" font-family="monospace" font-size="14" text-anchor="middle">Mapped</text><text x="520" y="85" fill="#fff" font-family="monospace" font-size="14" text-anchor="middle">Types</text><text x="520" y="105" fill="rgba(255,255,255,0.7)" font-family="monospace" font-size="11" text-anchor="middle">{[K in keyof T]: X}</text><rect width="180" height="90" x="30" y="140" fill="rgba(255,255,255,0.15)" rx="10"/><text x="120" y="170" fill="#fff" font-family="monospace" font-size="14" text-anchor="middle">Generic</text><text x="120" y="195" fill="#fff" font-family="monospace" font-size="14" text-anchor="middle">Constraints</text><text x="120" y="215" fill="rgba(255,255,255,0.7)" font-family="monospace" font-size="11" text-anchor="middle">T extends Base</text><rect width="180" height="90" x="230" y="140" fill="rgba(255,255,255,0.15)" rx="10"/><text x="320" y="170" fill="#fff" font-family="monospace" font-size="14" text-anchor="middle">Utility</text><text x="320" y="195" fill="#fff" font-family="monospace" font-size="14" text-anchor="middle">Types</text><text x="320" y="215" fill="rgba(255,255,255,0.7)" font-family="monospace" font-size="11" text-anchor="middle">Partial&lt;T&gt;</text><rect width="180" height="90" x="430" y="140" fill="rgba(255,255,255,0.15)" rx="10"/><text x="520" y="170" fill="#fff" font-family="monospace" font-size="14" text-anchor="middle">Design</text><text x="520" y="195" fill="#fff" font-family="monospace" font-size="14" text-anchor="middle">Patterns</text><text x="520" y="215" fill="rgba(255,255,255,0.7)" font-family="monospace" font-size="11" text-anchor="middle">Builder, Factory</text><rect width="400" height="80" x="130" y="250" fill="rgba(255,255,255,0.2)" rx="10"/><text x="330" y="295" fill="#fff" font-family="monospace" font-size="16" text-anchor="middle">Type-Level Programming</text></g><text x="600" y="540" fill="#fff" font-family="system-ui, -apple-system, sans-serif" font-size="42" font-weight="bold" text-anchor="middle">Advanced TypeScript Patterns</text><text x="600" y="590" fill="rgba(255,255,255,0.8)" font-family="system-ui, -apple-system, sans-serif" font-size="24" text-anchor="middle">For Enterprise Applications</text></svg>