<svg xmlns="http://www.w3.org/2000/svg" width="1200" height="630" viewBox="0 0 1200 630"><defs><linearGradient id="a" x1="0%" x2="100%" y1="0%" y2="100%"><stop offset="0%" style="stop-color:#0ea5e9;stop-opacity:1"/><stop offset="100%" style="stop-color:#7c3aed;stop-opacity:1"/></linearGradient><linearGradient id="c" x1="0%" x2="100%" y1="0%" y2="100%"><stop offset="0%" style="stop-color:#38bdf8;stop-opacity:.3"/><stop offset="100%" style="stop-color:#a78bfa;stop-opacity:.1"/></linearGradient><pattern id="b" width="150" height="150" x="0" y="0" patternUnits="userSpaceOnUse"><circle cx="75" cy="75" r="4" fill="rgba(255,255,255,0.15)"/><circle r="3" fill="rgba(255,255,255,0.1)"/><circle cx="150" r="3" fill="rgba(255,255,255,0.1)"/><circle cy="150" r="3" fill="rgba(255,255,255,0.1)"/><circle cx="150" cy="150" r="3" fill="rgba(255,255,255,0.1)"/><path stroke="rgba(255,255,255,0.08)" d="M75 75 0 0M75 75l75-75M75 75 0 150M75 75l75 75"/></pattern><filter id="d"><feGaussianBlur result="coloredBlur" stdDeviation="3"/><feMerge><feMergeNode in="coloredBlur"/><feMergeNode in="SourceGraphic"/></feMerge></filter></defs><path fill="url(#a)" d="M0 0h1200v630H0z"/><path fill="url(#b)" d="M0 0h1200v630H0z"/><circle cx="100" cy="100" r="150" fill="url(#c)"/><circle cx="1100" cy="530" r="200" fill="url(#c)"/><g filter="url(#d)" transform="translate(900 280)"><ellipse cx="60" cy="60" fill="rgba(255,255,255,0.2)" rx="50" ry="35"/><circle cx="40" cy="60" r="25" fill="rgba(255,255,255,0.2)"/><circle cx="80" cy="60" r="25" fill="rgba(255,255,255,0.2)"/><circle cx="60" cy="45" r="30" fill="rgba(255,255,255,0.2)"/><circle cx="20" cy="80" r="6" fill="rgba(255,255,255,0.6)"/><circle cx="100" cy="80" r="6" fill="rgba(255,255,255,0.6)"/><circle cx="60" cy="90" r="6" fill="rgba(255,255,255,0.6)"/><path stroke="rgba(255,255,255,0.4)" stroke-width="2" d="M60 60 20 80M60 60l40 20M60 60v30"/></g><g fill="none" opacity=".2" transform="translate(150 350)"><circle cx="100" cy="100" r="80" stroke="rgba(255,255,255,0.3)" stroke-width="2"/><ellipse cx="100" cy="100" stroke="rgba(255,255,255,0.2)" rx="80" ry="30"/><ellipse cx="100" cy="100" stroke="rgba(255,255,255,0.2)" rx="30" ry="80"/></g><text x="600" y="260" fill="#fff" filter="url(#d)" font-family="system-ui, -apple-system, sans-serif" font-size="52" font-weight="800" text-anchor="middle">Edge Computing</text><text x="600" y="325" fill="#fff" filter="url(#d)" font-family="system-ui, -apple-system, sans-serif" font-size="52" font-weight="800" text-anchor="middle">&amp; Serverless</text><text x="600" y="385" fill="rgba(255,255,255,0.9)" font-family="system-ui, -apple-system, sans-serif" font-size="28" font-weight="400" text-anchor="middle">The Future of Deployment</text><g transform="translate(550 435)"><rect width="100" height="40" fill="rgba(255,255,255,0.2)" rx="20"/><text x="50" y="26" fill="#fff" font-family="system-ui, -apple-system, sans-serif" font-size="20" font-weight="600" text-anchor="middle">2026</text></g><text x="600" y="580" fill="rgba(255,255,255,0.7)" font-family="system-ui, -apple-system, sans-serif" font-size="20" font-weight="500" text-anchor="middle">mubaidr.js.org</text><circle cx="100" cy="550" r="4" fill="rgba(255,255,255,0.4)"/><circle cx="120" cy="560" r="3" fill="rgba(255,255,255,0.3)"/><circle cx="1080" cy="100" r="4" fill="rgba(255,255,255,0.4)"/><circle cx="1100" cy="90" r="3" fill="rgba(255,255,255,0.3)"/></svg>