<svg xmlns="http://www.w3.org/2000/svg" width="1200" height="630" viewBox="0 0 1200 630"><defs><linearGradient id="a" x1="0%" x2="100%" y1="0%" y2="100%"><stop offset="0%" style="stop-color:#7c3aed;stop-opacity:1"/><stop offset="100%" style="stop-color:#4f46e5;stop-opacity:1"/></linearGradient><linearGradient id="c" x1="0%" x2="100%" y1="0%" y2="100%"><stop offset="0%" style="stop-color:#a78bfa;stop-opacity:.3"/><stop offset="100%" style="stop-color:#818cf8;stop-opacity:.1"/></linearGradient><pattern id="b" width="100" height="100" x="0" y="0" patternUnits="userSpaceOnUse"><circle cx="50" cy="50" r="3" fill="rgba(255,255,255,0.1)"/><path stroke="rgba(255,255,255,0.1)" d="M50 50V20M50 50h30"/><circle cx="80" cy="50" r="2" fill="rgba(255,255,255,0.15)"/></pattern><filter id="d"><feGaussianBlur result="coloredBlur" stdDeviation="3"/><feMerge><feMergeNode in="coloredBlur"/><feMergeNode in="SourceGraphic"/></feMerge></filter></defs><path fill="url(#a)" d="M0 0h1200v630H0z"/><path fill="url(#b)" d="M0 0h1200v630H0z" opacity=".5"/><circle cx="100" cy="100" r="150" fill="url(#c)"/><circle cx="1100" cy="530" r="200" fill="url(#c)"/><circle cx="600" cy="315" r="300" fill="url(#c)" opacity=".3"/><g filter="url(#d)" transform="translate(900 280)"><circle cx="50" cy="50" r="40" fill="none" stroke="rgba(255,255,255,0.3)" stroke-width="2"/><circle cx="50" cy="50" r="30" fill="none" stroke="rgba(255,255,255,0.4)" stroke-width="2"/><circle cx="50" cy="50" r="20" fill="none" stroke="rgba(255,255,255,0.5)" stroke-width="2"/><circle cx="50" cy="50" r="8" fill="rgba(255,255,255,0.8)"/><circle cx="20" cy="30" r="4" fill="rgba(255,255,255,0.6)"/><circle cx="80" cy="30" r="4" fill="rgba(255,255,255,0.6)"/><circle cx="20" cy="70" r="4" fill="rgba(255,255,255,0.6)"/><circle cx="80" cy="70" r="4" fill="rgba(255,255,255,0.6)"/><path stroke="rgba(255,255,255,0.3)" d="M50 50 20 30M50 50l30-20M50 50 20 70M50 50l30 20"/></g><g fill="rgba(255,255,255,0.4)" font-family="monospace" font-size="40" opacity=".3"><text transform="translate(150 400)">{}</text><text x="60" transform="translate(150 400)">()</text><text x="120" transform="translate(150 400)">[]</text></g><text x="600" y="260" fill="#fff" filter="url(#d)" font-family="system-ui, -apple-system, sans-serif" font-size="52" font-weight="800" text-anchor="middle">AI-Powered</text><text x="600" y="320" fill="#fff" filter="url(#d)" font-family="system-ui, -apple-system, sans-serif" font-size="52" font-weight="800" text-anchor="middle">Development Tools</text><text x="600" y="380" fill="rgba(255,255,255,0.9)" font-family="system-ui, -apple-system, sans-serif" font-size="28" font-weight="400" text-anchor="middle">Transforming Software Development in 2026</text><g transform="translate(550 430)"><rect width="100" height="40" fill="rgba(255,255,255,0.2)" rx="20"/><text x="50" y="26" fill="#fff" font-family="system-ui, -apple-system, sans-serif" font-size="20" font-weight="600" text-anchor="middle">2026</text></g><text x="600" y="580" fill="rgba(255,255,255,0.7)" font-family="system-ui, -apple-system, sans-serif" font-size="20" font-weight="500" text-anchor="middle">mubaidr.js.org</text><circle cx="100" cy="550" r="4" fill="rgba(255,255,255,0.4)"/><circle cx="120" cy="560" r="3" fill="rgba(255,255,255,0.3)"/><circle cx="1080" cy="100" r="4" fill="rgba(255,255,255,0.4)"/><circle cx="1100" cy="90" r="3" fill="rgba(255,255,255,0.3)"/></svg>