<svg xmlns="http://www.w3.org/2000/svg" width="1200" height="630" viewBox="0 0 1200 630"><defs><linearGradient id="bg13" x1="0%" x2="100%" y1="0%" y2="100%"><stop offset="0%" style="stop-color:#e535ab;stop-opacity:1"/><stop offset="100%" style="stop-color:#c83a70;stop-opacity:1"/></linearGradient></defs><rect width="1200" height="630" fill="url(#bg13)"/><g transform="translate(850, 150)"><polygon fill="none" stroke="#fff" stroke-width="4" points="100 0 200 50 200 150 100 200 0 150 0 50"/><circle cx="100" cy="100" r="30" fill="#fff"/><circle cx="100" cy="0" r="10" fill="#fff"/><circle cx="200" cy="50" r="10" fill="#fff"/><circle cx="200" cy="150" r="10" fill="#fff"/><circle cx="100" cy="200" r="10" fill="#fff"/><circle cx="0" cy="150" r="10" fill="#fff"/><circle cx="0" cy="50" r="10" fill="#fff"/></g><g transform="translate(100, 150)"><rect width="650" height="350" fill="rgba(0,0,0,0.3)" rx="15"/><text x="30" y="40" fill="#e535ab" font-family="monospace" font-size="14">type</text><text x="70" y="40" fill="#fff" font-family="monospace" font-size="14">User {</text><text x="50" y="70" fill="rgba(255,255,255,0.7)" font-family="monospace" font-size="13">id: ID!</text><text x="50" y="95" fill="rgba(255,255,255,0.7)" font-family="monospace" font-size="13">name: String!</text><text x="50" y="120" fill="rgba(255,255,255,0.7)" font-family="monospace" font-size="13">email: String!</text><text x="50" y="145" fill="rgba(255,255,255,0.7)" font-family="monospace" font-size="13">posts: [Post!]!</text><text x="30" y="175" fill="#fff" font-family="monospace" font-size="14">}</text><text x="30" y="210" fill="#e535ab" font-family="monospace" font-size="14">type</text><text x="70" y="210" fill="#fff" font-family="monospace" font-size="14">Post {</text><text x="50" y="240" fill="rgba(255,255,255,0.7)" font-family="monospace" font-size="13">id: ID!</text><text x="50" y="265" fill="rgba(255,255,255,0.7)" font-family="monospace" font-size="13">title: String!</text><text x="50" y="290" fill="rgba(255,255,255,0.7)" font-family="monospace" font-size="13">author: User!</text><text x="30" y="320" fill="#fff" font-family="monospace" font-size="14">}</text></g><g transform="translate(400, 180)"><rect width="300" height="50" fill="rgba(255,255,255,0.15)" rx="8"/><text x="150" y="32" fill="#fff" font-family="system-ui, sans-serif" font-size="16" text-anchor="middle">DataLoader for N+1</text></g><g transform="translate(400, 250)"><rect width="300" height="50" fill="rgba(255,255,255,0.15)" rx="8"/><text x="150" y="32" fill="#fff" font-family="system-ui, sans-serif" font-size="16" text-anchor="middle">Query Caching</text></g><g transform="translate(400, 320)"><rect width="300" height="50" fill="rgba(255,255,255,0.15)" rx="8"/><text x="150" y="32" fill="#fff" font-family="system-ui, sans-serif" font-size="16" text-anchor="middle">Subscriptions</text></g><text x="600" y="540" fill="#fff" font-family="system-ui, -apple-system, sans-serif" font-size="42" font-weight="bold" text-anchor="middle">GraphQL API Design Patterns</text><text x="600" y="590" fill="rgba(255,255,255,0.8)" font-family="system-ui, -apple-system, sans-serif" font-size="24" text-anchor="middle">Building Scalable and Efficient APIs</text></svg>