<svg xmlns="http://www.w3.org/2000/svg" width="1200" height="630" viewBox="0 0 1200 630"><defs><linearGradient id="bg4" x1="0%" x2="100%" y1="0%" y2="100%"><stop offset="0%" style="stop-color:#0f0c29;stop-opacity:1"/><stop offset="50%" style="stop-color:#302b63;stop-opacity:1"/><stop offset="100%" style="stop-color:#24243e;stop-opacity:1"/></linearGradient></defs><rect width="1200" height="630" fill="url(#bg4)"/><g stroke="rgba(255,255,255,0.1)" stroke-width="1"><line x1="0" x2="1200" y1="100" y2="100"/><line x1="0" x2="1200" y1="200" y2="200"/><line x1="0" x2="1200" y1="300" y2="300"/><line x1="0" x2="1200" y1="400" y2="400"/><line x1="300" x2="300" y1="0" y2="630"/><line x1="600" x2="600" y1="0" y2="630"/><line x1="900" x2="900" y1="0" y2="630"/></g><rect width="200" height="270" x="100" y="180" fill="rgba(255,255,255,0.1)" rx="10"/><rect width="160" height="40" x="120" y="200" fill="#4ade80" rx="5"/><rect width="160" height="40" x="120" y="260" fill="#60a5fa" rx="5"/><rect width="160" height="40" x="120" y="320" fill="#f472b6" rx="5"/><rect width="160" height="40" x="120" y="380" fill="#fbbf24" rx="5"/><line x1="300" x2="500" y1="315" y2="315" stroke="rgba(255,255,255,0.5)" stroke-dasharray="10 5" stroke-width="3"/><rect width="200" height="230" x="500" y="200" fill="rgba(255,255,255,0.15)" rx="15"/><rect width="160" height="150" x="520" y="220" fill="#1e1e1e" rx="5"/><circle cx="600" cy="400" r="15" fill="rgba(255,255,255,0.3)"/><ellipse cx="900" cy="200" fill="rgba(255,255,255,0.2)" rx="80" ry="30"/><rect width="160" height="150" x="820" y="200" fill="rgba(255,255,255,0.15)"/><ellipse cx="900" cy="350" fill="rgba(255,255,255,0.2)" rx="80" ry="30"/><ellipse cx="900" cy="275" fill="none" stroke="rgba(255,255,255,0.2)" stroke-width="2" rx="80" ry="30"/><line x1="700" x2="820" y1="315" y2="275" stroke="rgba(255,255,255,0.5)" stroke-dasharray="10 5" stroke-width="3"/><text x="600" y="520" fill="#fff" font-family="system-ui, -apple-system, sans-serif" font-size="42" font-weight="bold" text-anchor="middle">Full Stack Development</text><text x="600" y="570" fill="rgba(255,255,255,0.8)" font-family="system-ui, -apple-system, sans-serif" font-size="24" text-anchor="middle">Node.js + Vue.js Complete Guide</text></svg>