<svg xmlns="http://www.w3.org/2000/svg" width="1200" height="630" viewBox="0 0 1200 630"><defs><linearGradient id="a" x1="0%" x2="100%" y1="0%" y2="100%"><stop offset="0%" style="stop-color:#3178c6;stop-opacity:1"/><stop offset="100%" style="stop-color:#235a8a;stop-opacity:1"/></linearGradient><linearGradient id="c" x1="0%" x2="100%" y1="0%" y2="100%"><stop offset="0%" style="stop-color:#5b9fc9;stop-opacity:.3"/><stop offset="100%" style="stop-color:#4682b4;stop-opacity:.1"/></linearGradient><pattern id="b" width="120" height="120" x="0" y="0" patternUnits="userSpaceOnUse"><text x="10" y="30" fill="rgba(255,255,255,0.08)" font-family="monospace" font-size="14">: string</text><text x="10" y="60" fill="rgba(255,255,255,0.08)" font-family="monospace" font-size="14">: number</text><text x="10" y="90" fill="rgba(255,255,255,0.08)" font-family="monospace" font-size="14">: boolean</text></pattern><filter id="d"><feGaussianBlur result="coloredBlur" stdDeviation="3"/><feMerge><feMergeNode in="coloredBlur"/><feMergeNode in="SourceGraphic"/></feMerge></filter></defs><path fill="url(#a)" d="M0 0h1200v630H0z"/><path fill="url(#b)" d="M0 0h1200v630H0z"/><circle cx="100" cy="100" r="150" fill="url(#c)"/><circle cx="1100" cy="530" r="200" fill="url(#c)"/><g filter="url(#d)" transform="translate(920 280)"><rect width="120" height="120" fill="rgba(255,255,255,0.15)" rx="10"/><text x="60" y="75" fill="#fff" font-family="system-ui, -apple-system, sans-serif" font-size="60" font-weight="900" text-anchor="middle">TS</text></g><g fill="rgba(255,255,255,0.3)" font-family="monospace" font-size="80" opacity=".3"><text transform="translate(150 300)">&lt;</text><text x="200" transform="translate(150 300)">&gt;</text></g><text x="600" y="260" fill="#fff" filter="url(#d)" font-family="system-ui, -apple-system, sans-serif" font-size="56" font-weight="800" text-anchor="middle">TypeScript</text><text x="600" y="330" fill="#fff" filter="url(#d)" font-family="system-ui, -apple-system, sans-serif" font-size="48" font-weight="700" text-anchor="middle">2026 Features</text><text x="600" y="390" fill="rgba(255,255,255,0.9)" font-family="system-ui, -apple-system, sans-serif" font-size="26" font-weight="400" text-anchor="middle">Type Safety Revolution</text><g transform="translate(550 440)"><rect width="100" height="40" fill="rgba(255,255,255,0.2)" rx="20"/><text x="50" y="26" fill="#fff" font-family="system-ui, -apple-system, sans-serif" font-size="20" font-weight="600" text-anchor="middle">2026</text></g><text x="600" y="580" fill="rgba(255,255,255,0.7)" font-family="system-ui, -apple-system, sans-serif" font-size="20" font-weight="500" text-anchor="middle">mubaidr.js.org</text><circle cx="100" cy="550" r="4" fill="rgba(255,255,255,0.4)"/><circle cx="120" cy="560" r="3" fill="rgba(255,255,255,0.3)"/><circle cx="1080" cy="100" r="4" fill="rgba(255,255,255,0.4)"/><circle cx="1100" cy="90" r="3" fill="rgba(255,255,255,0.3)"/></svg>