<svg width="1200" height="630" viewBox="0 0 1200 630" xmlns="http://www.w3.org/2000/svg">
  <defs>
    <linearGradient id="bg" x1="0%" y1="0%" x2="100%" y2="100%">
      <stop offset="0%" style="stop-color:#0c4a6e"/>
      <stop offset="100%" style="stop-color:#075985"/>
    </linearGradient>
    <linearGradient id="accent" x1="0%" y1="0%" x2="100%" y2="100%">
      <stop offset="0%" style="stop-color:#22d3ee"/>
      <stop offset="100%" style="stop-color:#3b82f6"/>
    </linearGradient>
    <linearGradient id="ai" x1="0%" y1="0%" x2="100%" y2="100%">
      <stop offset="0%" style="stop-color:#a78bfa"/>
      <stop offset="100%" style="stop-color:#f472b6"/>
    </linearGradient>
  </defs>

  <!-- Background -->
  <rect width="1200" height="630" fill="url(#bg)"/>

  <!-- AI brain visualization -->
  <g transform="translate(900, 200)" fill="none" stroke="url(--ai)" stroke-width="2">
    <circle cx="60" cy="60" r="50" stroke-width="2"/>
    <circle cx="60" cy="60" r="35" stroke-width="2"/>
    <circle cx="60" cy="60" r="20" stroke-width="2"/>
    <line x1="60" y1="10" x2="60" y2="25"/>
    <line x1="60" y1="95" x2="60" y2="110"/>
    <line x1="10" y1="60" x2="25" y2="60"/>
    <line x1="95" y1="60" x2="110" y2="60"/>
  </g>

  <!-- SEO graph -->
  <g transform="translate(150, 250)" fill="none" stroke="url(--accent)" stroke-width="3">
    <line x1="0" y1="100" x2="0" y2="0" stroke-width="2"/>
    <line x1="0" y1="100" x2="500" y2="100" stroke-width="2"/>
    <path d="M0 100 L50 90 L100 95 L150 80 L200 85 L250 70 L300 60 L350 65 L400 50 L450 45 L500 30" stroke-width="3" stroke-linecap="round" stroke-linejoin="round"/>
    <circle cx="500" cy="30" r="6" fill="url(--accent)"/>
  </g>

  <!-- Schema markup icon -->
  <g transform="translate(200, 150)" fill="none" stroke="url(--accent)" stroke-width="2">
    <rect x="0" y="0" width="120" height="80" rx="8" stroke-width="2"/>
    <text x="15" y="25" font-family="monospace" font-size="12" fill="url(--accent)">&lt;script&gt;</text>
    <text x="15" y="45" font-family="monospace" font-size="10" fill="#94a3b8">type: "BlogPosting"</text>
    <text x="15" y="60" font-family="monospace" font-size="10" fill="#94a3b8">author: "Mubaidr"</text>
  </g>

  <!-- Title text -->
  <text x="100" y="450" font-family="system-ui, -apple-system, sans-serif" font-size="42" font-weight="bold" fill="white">
    AI-Powered SEO in 2026
  </text>
  <text x="100" y="500" font-family="system-ui, -apple-system, sans-serif" font-size="30" fill="url(--accent)" font-weight="600">
    Complete Developer's Guide
  </text>

  <!-- Author info -->
  <text x="100" y="560" font-family="system-ui, -apple-system, sans-serif" font-size="18" fill="#94a3b8">
    By Mubaidr • 12 min read
  </text>
</svg>
