<svg xmlns="http://www.w3.org/2000/svg" width="1200" height="630" viewBox="0 0 1200 630"><defs><linearGradient id="bg3" x1="0%" x2="100%" y1="0%" y2="100%"><stop offset="0%" style="stop-color:#42b883;stop-opacity:1"/><stop offset="100%" style="stop-color:#35495e;stop-opacity:1"/></linearGradient></defs><rect width="1200" height="630" fill="url(#bg3)"/><circle cx="150" cy="150" r="200" fill="rgba(255,255,255,0.05)"/><circle cx="1050" cy="480" r="180" fill="rgba(255,255,255,0.08)"/><rect width="300" height="230" x="100" y="200" fill="#fff" opacity=".95" rx="15"/><rect width="300" height="50" x="100" y="200" fill="#35495e" rx="15"/><circle cx="130" cy="225" r="10" fill="#ff5f56"/><circle cx="160" cy="225" r="10" fill="#ffbd2e"/><circle cx="190" cy="225" r="10" fill="#27ca40"/><rect width="140" height="100" x="180" y="280" fill="#42b883" rx="10"/><circle cx="250" cy="280" r="20" fill="#42b883"/><circle cx="320" cy="330" r="20" fill="#42b883"/><polygon fill="#42b883" points="900 150 950 80 1000 150"/><polygon fill="#35495e" points="900 150 950 100 1000 150"/><polygon fill="#fff" points="920 150 950 110 980 150"/><polygon fill="#ffc107" points="750 200 800 150 780 250 830 200 770 300 790 200"/><rect width="250" height="20" x="500" y="300" fill="rgba(255,255,255,0.3)" rx="4"/><rect width="200" height="20" x="520" y="340" fill="rgba(255,255,255,0.25)" rx="4"/><rect width="180" height="20" x="500" y="380" fill="rgba(255,255,255,0.2)" rx="4"/><text x="600" y="520" fill="#fff" font-family="system-ui, -apple-system, sans-serif" font-size="42" font-weight="bold" text-anchor="middle">Browser Extension Development</text><text x="600" y="570" fill="rgba(255,255,255,0.8)" font-family="system-ui, -apple-system, sans-serif" font-size="24" text-anchor="middle">Vite + Vue 3 + Manifest V3</text></svg>