<svg xmlns="http://www.w3.org/2000/svg" width="1200" height="630"><defs><linearGradient id="bg" x1="0%" x2="100%" y1="0%" y2="100%"><stop offset="0%" style="stop-color:#1a1a2e"/><stop offset="100%" style="stop-color:#16213e"/></linearGradient><linearGradient id="accent" x1="0%" x2="100%" y1="0%" y2="100%"><stop offset="0%" style="stop-color:#0ea5e9"/><stop offset="100%" style="stop-color:#6366f1"/></linearGradient></defs><rect width="1200" height="630" fill="url(#bg)"/><circle cx="100" cy="100" r="200" fill="url(#accent)" opacity=".1"/><circle cx="1100" cy="530" r="300" fill="url(#accent)" opacity=".1"/><g transform="translate(150, 200)"><circle cx="200" cy="150" r="80" fill="none" stroke="url(#accent)" stroke-width="3"/><circle cx="200" cy="150" r="60" fill="none" stroke="url(#accent)" stroke-width="2"/><circle cx="200" cy="150" r="40" fill="none" stroke="url(#accent)" stroke-width="2"/><circle cx="200" cy="150" r="10" fill="url(#accent)"/><line x1="200" x2="100" y1="150" y2="100" stroke="url(#accent)" stroke-width="2" opacity=".5"/><line x1="200" x2="300" y1="150" y2="100" stroke="url(#accent)" stroke-width="2" opacity=".5"/><line x1="200" x2="100" y1="150" y2="200" stroke="url(#accent)" stroke-width="2" opacity=".5"/><line x1="200" x2="300" y1="150" y2="200" stroke="url(#accent)" stroke-width="2" opacity=".5"/><circle cx="100" cy="100" r="8" fill="url(#accent)"/><circle cx="300" cy="100" r="8" fill="url(#accent)"/><circle cx="100" cy="200" r="8" fill="url(#accent)"/><circle cx="300" cy="200" r="8" fill="url(#accent)"/></g><g fill="url(#accent)" opacity=".8" transform="translate(700, 200)"><text x="0" y="0" font-family="monospace" font-size="40">&lt;</text><text x="40" y="0" font-family="monospace" font-size="40">/</text><text x="80" y="0" font-family="monospace" font-size="40">&gt;</text></g><text x="100" y="450" fill="#fff" font-family="system-ui, sans-serif" font-size="48" font-weight="bold">AI-First Development</text><text x="100" y="510" fill="#94a3b8" font-family="system-ui, sans-serif" font-size="24">Building the Future of Software in 2026</text><text x="100" y="570" fill="#64748b" font-family="system-ui, sans-serif" font-size="18">By Mubaidr • 10 min read</text></svg>