<svg xmlns="http://www.w3.org/2000/svg" width="1200" height="630" viewBox="0 0 1200 630"><defs><linearGradient id="bg" x1="0%" x2="100%" y1="0%" y2="100%"><stop offset="0%" style="stop-color:#0c4a6e"/><stop offset="100%" style="stop-color:#075985"/></linearGradient><linearGradient id="accent" x1="0%" x2="100%" y1="0%" y2="100%"><stop offset="0%" style="stop-color:#22d3ee"/><stop offset="100%" style="stop-color:#3b82f6"/></linearGradient><linearGradient id="frontend" x1="0%" x2="100%" y1="0%" y2="0%"><stop offset="0%" style="stop-color:#a78bfa"/><stop offset="100%" style="stop-color:#f472b6"/></linearGradient><linearGradient id="backend" x1="0%" x2="100%" y1="0%" y2="0%"><stop offset="0%" style="stop-color:#34d399"/><stop offset="100%" style="stop-color:#10b981"/></linearGradient><linearGradient id="database" x1="0%" x2="100%" y1="0%" y2="0%"><stop offset="0%" style="stop-color:#fbbf24"/><stop offset="100%" style="stop-color:#f59e0b"/></linearGradient></defs><rect width="1200" height="630" fill="url(#bg)"/><g fill="none" stroke-width="2" transform="translate(150, 180)"><rect width="300" height="80" x="0" y="0" stroke="url(--frontend)" stroke-width="2" rx="12"/><text x="150" y="35" fill="url(--frontend)" font-family="system-ui, sans-serif" font-size="20" font-weight="bold">Frontend</text><text x="150" y="60" fill="#94a3b8" font-family="system-ui, sans-serif" font-size="14">React, Vue, Nuxt</text><rect width="300" height="80" x="350" y="0" stroke="url(--backend)" stroke-width="2" rx="12"/><text x="500" y="35" fill="url(--backend)" font-family="system-ui, sans-serif" font-size="20" font-weight="bold">Backend</text><text x="500" y="60" fill="#94a3b8" font-family="system-ui, sans-serif" font-size="14">Node.js, Hono, PostgreSQL</text><rect width="300" height="80" x="750" y="0" stroke="url(--database)" stroke-width="2" rx="12"/><text x="900" y="35" fill="url(--database)" font-family="system-ui, sans-serif" font-size="20" font-weight="bold">Database</text><text x="900" y="60" fill="#94a3b8" font-family="system-ui, sans-serif" font-size="14">PostgreSQL, Redis</text><line x1="300" x2="350" y1="40" y2="40" stroke="url(--accent)" stroke-dasharray="4" stroke-width="2"/><line x1="650" x2="750" y1="40" y2="40" stroke="url(--accent)" stroke-dasharray="4" stroke-width="2"/></g><g fill="none" stroke="url(--accent)" stroke-width="2" transform="translate(900, 320)"><rect width="80" height="60" x="0" y="0" stroke-width="2" rx="8"/><text x="15" y="25" fill="url(--accent)" font-family="monospace" font-size="10">Docker</text><text x="15" y="45" fill="#94a3b8" font-family="monospace" font-size="10">Kubernetes</text></g><g fill="none" stroke="url(--frontend)" stroke-width="2" transform="translate(200, 320)"><rect width="100" height="60" x="0" y="0" stroke-width="2" rx="8"/><text x="50" y="38" fill="url(--frontend)" font-family="system-ui, sans-serif" font-size="24" font-weight="bold">TS</text></g><text x="100" y="480" fill="#fff" font-family="system-ui, -apple-system, sans-serif" font-size="42" font-weight="bold">Full-Stack Development 2026</text><text x="100" y="530" fill="url(--accent)" font-family="system-ui, -apple-system, sans-serif" font-size="30" font-weight="600">Complete Roadmap</text><text x="100" y="580" fill="#94a3b8" font-family="system-ui, -apple-system, sans-serif" font-size="18">By Mubaidr • 12 min read</text></svg>