<svg xmlns="http://www.w3.org/2000/svg" width="1200" height="630" viewBox="0 0 1200 630"><defs><linearGradient id="a" x1="0%" x2="100%" y1="0%" y2="100%"><stop offset="0%" style="stop-color:#0891b2;stop-opacity:1"/><stop offset="100%" style="stop-color:#059669;stop-opacity:1"/></linearGradient><linearGradient id="c" x1="0%" x2="100%" y1="0%" y2="100%"><stop offset="0%" style="stop-color:#22d3ee;stop-opacity:.3"/><stop offset="100%" style="stop-color:#34d399;stop-opacity:.1"/></linearGradient><pattern id="b" width="100" height="100" x="0" y="0" patternUnits="userSpaceOnUse"><path stroke="rgba(255,255,255,0.1)" stroke-linecap="round" stroke-width="2" d="M0 50h60"/><path stroke="rgba(255,255,255,0.08)" stroke-linecap="round" d="M20 30h30M10 70h30"/></pattern><filter id="d"><feGaussianBlur result="coloredBlur" stdDeviation="3"/><feMerge><feMergeNode in="coloredBlur"/><feMergeNode in="SourceGraphic"/></feMerge></filter></defs><path fill="url(#a)" d="M0 0h1200v630H0z"/><path fill="url(#b)" d="M0 0h1200v630H0z" opacity=".5"/><circle cx="100" cy="100" r="150" fill="url(#c)"/><circle cx="1100" cy="530" r="200" fill="url(#c)"/><g filter="url(#d)" transform="translate(900 300)"><path fill="none" stroke="rgba(255,255,255,0.2)" stroke-linecap="round" stroke-width="8" d="M0 50a50 50 0 0 1 100 0"/><path fill="none" stroke="rgba(255,255,255,0.5)" stroke-linecap="round" stroke-width="6" d="M10 50a40 40 0 0 1 80 0"/><path stroke="#fff" stroke-linecap="round" stroke-width="3" d="m50 50 35-25"/><circle cx="50" cy="50" r="6" fill="#fff"/><path fill="none" stroke="rgba(34,197,94,0.6)" stroke-linecap="round" stroke-width="4" d="M15 50a35 35 0 0 1 35-30"/></g><g font-family="system-ui" opacity=".3"><text fill="rgba(255,255,255,0.4)" font-size="60" transform="translate(150 350)">✓</text><text x="60" y="20" fill="rgba(255,255,255,0.3)" font-size="50" transform="translate(150 350)">✓</text><text x="100" y="40" fill="rgba(255,255,255,0.2)" font-size="40" transform="translate(150 350)">✓</text></g><text x="600" y="260" fill="#fff" filter="url(#d)" font-family="system-ui, -apple-system, sans-serif" font-size="52" font-weight="800" text-anchor="middle">
    Core Web Vitals
  </text><text x="600" y="325" fill="#fff" filter="url(#d)" font-family="system-ui, -apple-system, sans-serif" font-size="48" font-weight="700" text-anchor="middle">
    2026 Optimization
  </text><text x="600" y="385" fill="rgba(255,255,255,0.9)" font-family="system-ui, -apple-system, sans-serif" font-size="26" font-weight="400" text-anchor="middle">
    Performance That Matters
  </text><g transform="translate(420 435)"><rect width="70" height="35" fill="rgba(255,255,255,0.2)" rx="17"/><text x="35" y="23" fill="#fff" font-family="system-ui, -apple-system, sans-serif" font-size="16" font-weight="600" text-anchor="middle">LCP</text></g><g transform="translate(510 435)"><rect width="70" height="35" fill="rgba(255,255,255,0.2)" rx="17"/><text x="35" y="23" fill="#fff" font-family="system-ui, -apple-system, sans-serif" font-size="16" font-weight="600" text-anchor="middle">INP</text></g><g transform="translate(600 435)"><rect width="70" height="35" fill="rgba(255,255,255,0.2)" rx="17"/><text x="35" y="23" fill="#fff" font-family="system-ui, -apple-system, sans-serif" font-size="16" font-weight="600" text-anchor="middle">CLS</text></g><text x="600" y="580" fill="rgba(255,255,255,0.7)" font-family="system-ui, -apple-system, sans-serif" font-size="20" font-weight="500" text-anchor="middle">
    mubaidr.js.org
  </text><circle cx="100" cy="550" r="4" fill="rgba(255,255,255,0.4)"/><circle cx="120" cy="560" r="3" fill="rgba(255,255,255,0.3)"/><circle cx="1080" cy="100" r="4" fill="rgba(255,255,255,0.4)"/><circle cx="1100" cy="90" r="3" fill="rgba(255,255,255,0.3)"/></svg>