<svg xmlns="http://www.w3.org/2000/svg" width="1200" height="630" viewBox="0 0 1200 630"><defs><linearGradient id="bg10" x1="0%" x2="100%" y1="0%" y2="100%"><stop offset="0%" style="stop-color:#000;stop-opacity:1"/><stop offset="100%" style="stop-color:#1a1a1a;stop-opacity:1"/></linearGradient></defs><rect width="1200" height="630" fill="url(#bg10)"/><g transform="translate(800, 150)"><circle cx="100" cy="100" r="100" fill="none" stroke="#fff" stroke-width="4"/><text x="100" y="120" fill="#fff" font-family="system-ui, sans-serif" font-size="80" font-weight="bold" text-anchor="middle">N</text><path stroke="#fff" stroke-width="8" d="M 60 180 L 140 20"/></g><g transform="translate(100, 150)"><rect width="550" height="350" fill="rgba(255,255,255,0.05)" rx="15"/><text x="275" y="40" fill="#fff" font-family="system-ui, sans-serif" font-size="24" text-anchor="middle">App Router</text><rect width="120" height="40" x="30" y="70" fill="rgba(255,255,255,0.15)" rx="5"/><text x="90" y="97" fill="#fff" font-family="monospace" font-size="14" text-anchor="middle">app/</text><rect width="100" height="35" x="60" y="130" fill="rgba(255,255,255,0.1)" rx="5"/><text x="110" y="153" fill="#fff" font-family="monospace" font-size="12" text-anchor="middle">layout.js</text><rect width="100" height="35" x="60" y="175" fill="rgba(255,255,255,0.1)" rx="5"/><text x="110" y="198" fill="#fff" font-family="monospace" font-size="12" text-anchor="middle">page.js</text><rect width="100" height="35" x="60" y="220" fill="rgba(255,255,255,0.1)" rx="5"/><text x="110" y="243" fill="#fff" font-family="monospace" font-size="12" text-anchor="middle">loading.js</text><rect width="100" height="35" x="60" y="265" fill="rgba(255,255,255,0.1)" rx="5"/><text x="110" y="288" fill="#fff" font-family="monospace" font-size="12" text-anchor="middle">error.js</text><rect width="150" height="35" x="200" y="130" fill="rgba(255,255,255,0.1)" rx="5"/><text x="275" y="153" fill="#fff" font-family="system-ui, sans-serif" font-size="12" text-anchor="middle">Server Components</text><rect width="150" height="35" x="200" y="175" fill="rgba(255,255,255,0.1)" rx="5"/><text x="275" y="198" fill="#fff" font-family="system-ui, sans-serif" font-size="12" text-anchor="middle">Streaming</text><rect width="150" height="35" x="200" y="220" fill="rgba(255,255,255,0.1)" rx="5"/><text x="275" y="243" fill="#fff" font-family="system-ui, sans-serif" font-size="12" text-anchor="middle">Data Fetching</text><rect width="150" height="35" x="380" y="130" fill="rgba(255,255,255,0.1)" rx="5"/><text x="455" y="153" fill="#fff" font-family="system-ui, sans-serif" font-size="12" text-anchor="middle">Caching</text><rect width="150" height="35" x="380" y="175" fill="rgba(255,255,255,0.1)" rx="5"/><text x="455" y="198" fill="#fff" font-family="system-ui, sans-serif" font-size="12" text-anchor="middle">Server Actions</text></g><text x="600" y="540" fill="#fff" font-family="system-ui, -apple-system, sans-serif" font-size="42" font-weight="bold" text-anchor="middle">Next.js 14 App Router</text><text x="600" y="590" fill="rgba(255,255,255,0.8)" font-family="system-ui, -apple-system, sans-serif" font-size="24" text-anchor="middle">Complete Guide with Server Components</text></svg>