<svg xmlns="http://www.w3.org/2000/svg" xmlns:xlink="http://www.w3.org/1999/xlink" width="1200" height="630" viewBox="0 0 1200 630"><defs><linearGradient id="bg-gradient-23" x1="0%" x2="100%" y1="0%" y2="100%"><stop offset="0%" style="stop-color:#7c3aed;stop-opacity:1"/><stop offset="50%" style="stop-color:#6366f1;stop-opacity:1"/><stop offset="100%" style="stop-color:#3b82f6;stop-opacity:1"/></linearGradient><linearGradient id="secondary-gradient-23" x1="0%" x2="100%" y1="0%" y2="100%"><stop offset="0%" style="stop-color:#7c3aed;stop-opacity:.3"/><stop offset="100%" style="stop-color:#3b82f6;stop-opacity:.1"/></linearGradient><filter id="glow-23"><feGaussianBlur result="coloredBlur" stdDeviation="4"/><feMerge><feMergeNode in="coloredBlur"/><feMergeNode in="SourceGraphic"/></feMerge></filter><filter id="sparkle-23"><feGaussianBlur result="coloredBlur" stdDeviation="2"/><feMerge><feMergeNode in="coloredBlur"/><feMergeNode in="SourceGraphic"/></feMerge></filter></defs><rect width="1200" height="630" fill="url(#bg-gradient-23)"/><circle cx="100" cy="100" r="150" fill="url(#secondary-gradient-23)"/><circle cx="1100" cy="530" r="200" fill="url(#secondary-gradient-23)"/><circle cx="600" cy="315" r="300" fill="url(#secondary-gradient-23)" opacity=".3"/><g transform="translate(550, 80)"><circle cx="50" cy="50" r="40" fill="none" stroke="rgba(255,255,255,0.3)" stroke-width="2"/><circle cx="50" cy="50" r="25" fill="rgba(255,255,255,0.2)"/><circle cx="50" cy="50" r="10" fill="rgba(255,255,255,0.4)" filter="url(#sparkle-23)"/><circle cx="20" cy="20" r="6" fill="rgba(255,255,255,0.6)" filter="url(#glow-23)"/><circle cx="80" cy="20" r="6" fill="rgba(255,255,255,0.6)" filter="url(#glow-23)"/><circle cx="20" cy="80" r="6" fill="rgba(255,255,255,0.6)" filter="url(#glow-23)"/><circle cx="80" cy="80" r="6" fill="rgba(255,255,255,0.6)" filter="url(#glow-23)"/><line x1="50" x2="20" y1="50" y2="20" stroke="rgba(255,255,255,0.3)" stroke-width="1.5"/><line x1="50" x2="80" y1="50" y2="20" stroke="rgba(255,255,255,0.3)" stroke-width="1.5"/><line x1="50" x2="20" y1="50" y2="80" stroke="rgba(255,255,255,0.3)" stroke-width="1.5"/><line x1="50" x2="80" y1="50" y2="80" stroke="rgba(255,255,255,0.3)" stroke-width="1.5"/></g><g transform="translate(100, 220)"><rect width="280" height="120" x="0" y="0" fill="rgba(255,255,255,0.15)" stroke="rgba(255,255,255,0.3)" stroke-width="2" rx="12"/><text x="140" y="45" fill="#fff" font-family="system-ui, -apple-system, sans-serif" font-size="24" font-weight="700" text-anchor="middle">ChatGPT</text><text x="140" y="75" fill="rgba(255,255,255,0.8)" font-family="system-ui, -apple-system, sans-serif" font-size="14" font-weight="400" text-anchor="middle">✓ Cited</text><circle cx="250" cy="35" r="12" fill="rgba(34, 197, 94, 0.3)" stroke="rgba(34, 197, 94, 0.8)" stroke-width="2"/><path fill="none" stroke="rgba(34, 197, 94, 0.8)" stroke-linecap="round" stroke-linejoin="round" stroke-width="2" d="M 245 35 L 248 38 L 255 30"/></g><g transform="translate(460, 220)"><rect width="280" height="120" x="0" y="0" fill="rgba(255,255,255,0.15)" stroke="rgba(255,255,255,0.3)" stroke-width="2" rx="12"/><text x="140" y="45" fill="#fff" font-family="system-ui, -apple-system, sans-serif" font-size="24" font-weight="700" text-anchor="middle">Gemini</text><text x="140" y="75" fill="rgba(255,255,255,0.8)" font-family="system-ui, -apple-system, sans-serif" font-size="14" font-weight="400" text-anchor="middle">✓ Cited</text><circle cx="250" cy="35" r="12" fill="rgba(34, 197, 94, 0.3)" stroke="rgba(34, 197, 94, 0.8)" stroke-width="2"/><path fill="none" stroke="rgba(34, 197, 94, 0.8)" stroke-linecap="round" stroke-linejoin="round" stroke-width="2" d="M 245 35 L 248 38 L 255 30"/></g><g transform="translate(820, 220)"><rect width="280" height="120" x="0" y="0" fill="rgba(255,255,255,0.15)" stroke="rgba(255,255,255,0.3)" stroke-width="2" rx="12"/><text x="140" y="45" fill="#fff" font-family="system-ui, -apple-system, sans-serif" font-size="24" font-weight="700" text-anchor="middle">Perplexity</text><text x="140" y="75" fill="rgba(255,255,255,0.8)" font-family="system-ui, -apple-system, sans-serif" font-size="14" font-weight="400" text-anchor="middle">✓ Cited</text><circle cx="250" cy="35" r="12" fill="rgba(34, 197, 94, 0.3)" stroke="rgba(34, 197, 94, 0.8)" stroke-width="2"/><path fill="none" stroke="rgba(34, 197, 94, 0.8)" stroke-linecap="round" stroke-linejoin="round" stroke-width="2" d="M 245 35 L 248 38 L 255 30"/></g><text x="600" y="420" fill="#fff" filter="url(#glow-23)" font-family="system-ui, -apple-system, sans-serif" font-size="48" font-weight="800" text-anchor="middle">AI SEO for</text><text x="600" y="480" fill="#fff" filter="url(#glow-23)" font-family="system-ui, -apple-system, sans-serif" font-size="44" font-weight="700" text-anchor="middle">Developer Blogs</text><text x="600" y="530" fill="rgba(255,255,255,0.9)" font-family="system-ui, -apple-system, sans-serif" font-size="24" font-weight="400" text-anchor="middle">Get Cited by ChatGPT, Gemini &amp; Perplexity</text><text x="600" y="580" fill="rgba(255,255,255,0.7)" font-family="system-ui, -apple-system, sans-serif" font-size="20" font-weight="500" text-anchor="middle">mubaidr.js.org</text><circle cx="100" cy="550" r="4" fill="rgba(255,255,255,0.4)"/><circle cx="120" cy="560" r="3" fill="rgba(255,255,255,0.3)"/><circle cx="1080" cy="100" r="4" fill="rgba(255,255,255,0.4)"/><circle cx="1100" cy="90" r="3" fill="rgba(255,255,255,0.3)"/><circle cx="200" cy="150" r="3" fill="rgba(255,255,255,0.6)" filter="url(#sparkle-23)"/><circle cx="900" cy="180" r="3" fill="rgba(255,255,255,0.6)" filter="url(#sparkle-23)"/><circle cx="300" cy="500" r="3" fill="rgba(255,255,255,0.6)" filter="url(#sparkle-23)"/><circle cx="950" cy="520" r="3" fill="rgba(255,255,255,0.6)" filter="url(#sparkle-23)"/></svg>