<svg xmlns="http://www.w3.org/2000/svg" width="1200" height="630" viewBox="0 0 1200 630"><defs><linearGradient id="bg" x1="0%" x2="100%" y1="0%" y2="100%"><stop offset="0%" style="stop-color:#1e1b4b"/><stop offset="100%" style="stop-color:#312e81"/></linearGradient><linearGradient id="accent" x1="0%" x2="100%" y1="0%" y2="100%"><stop offset="0%" style="stop-color:#a78bfa"/><stop offset="100%" style="stop-color:#f472b6"/></linearGradient><linearGradient id="react" x1="0%" x2="100%" y1="0%" y2="100%"><stop offset="0%" style="stop-color:#22d3ee"/><stop offset="100%" style="stop-color:#3b82f6"/></linearGradient></defs><rect width="1200" height="630" fill="url(#bg)"/><g fill="none" stroke="url(--react)" stroke-width="2" transform="translate(900, 200)"><ellipse cx="60" cy="60" stroke-width="2" rx="15" ry="60" transform="rotate(0 60 60)"/><ellipse cx="60" cy="60" stroke-width="2" rx="15" ry="60" transform="rotate(60 60 60)"/><ellipse cx="60" cy="60" stroke-width="2" rx="15" ry="60" transform="rotate(120 60 60)"/><circle cx="60" cy="60" r="10" fill="url(--react)"/></g><g fill="none" stroke="url(--accent)" stroke-width="2" transform="translate(200, 250)"><circle cx="40" cy="40" r="30" stroke-width="2"/><circle cx="40" cy="40" r="15" stroke-width="2"/><line x1="40" x2="40" y1="10" y2="20" stroke-width="2"/><line x1="40" x2="40" y1="70" y2="60" stroke-width="2"/><line x1="10" x2="20" y1="40" y2="40" stroke-width="2"/><line x1="70" x2="60" y1="40" y2="40" stroke-width="2"/><circle cx="140" cy="40" r="25" stroke-width="2"/><circle cx="140" cy="40" r="12" stroke-width="2"/><line x1="140" x2="140" y1="15" y2="23" stroke-width="2"/><line x1="140" x2="140" y1="65" y2="57" stroke-width="2"/><line x1="115" x2="123" y1="40" y2="40" stroke-width="2"/><line x1="165" x2="157" y1="40" y2="40" stroke-width="2"/><line x1="70" x2="115" y1="40" y2="40" stroke-dasharray="4" stroke-width="2"/></g><g fill="none" stroke="url(--react)" stroke-width="2" transform="translate(150, 150)"><rect width="280" height="80" x="0" y="0" stroke-width="2" rx="8"/><text x="15" y="28" fill="url(--react)" font-family="monospace" font-size="12">const Component = ({</text><text x="15" y="48" fill="#94a3b8" font-family="monospace" font-size="12">data</text><text x="15" y="68" fill="url(--react)" font-family="monospace" font-size="12">}) =&gt; { ... }</text></g><text x="100" y="450" fill="#fff" font-family="system-ui, -apple-system, sans-serif" font-size="42" font-weight="bold">React Compiler &amp; Auto-Memoization</text><text x="100" y="500" fill="url(--accent)" font-family="system-ui, -apple-system, sans-serif" font-size="30" font-weight="600">End of Manual Optimization</text><text x="100" y="560" fill="#94a3b8" font-family="system-ui, -apple-system, sans-serif" font-size="18">By Mubaidr • 10 min read</text></svg>