<svg xmlns="http://www.w3.org/2000/svg" width="1200" height="630" viewBox="0 0 1200 630"><defs><linearGradient id="bg1" x1="0%" x2="100%" y1="0%" y2="100%"><stop offset="0%" style="stop-color:#667eea;stop-opacity:1"/><stop offset="100%" style="stop-color:#764ba2;stop-opacity:1"/></linearGradient><linearGradient id="accent1" x1="0%" x2="100%" y1="0%" y2="0%"><stop offset="0%" style="stop-color:#f093fb;stop-opacity:1"/><stop offset="100%" style="stop-color:#f5576c;stop-opacity:1"/></linearGradient></defs><rect width="1200" height="630" fill="url(#bg1)"/><circle cx="100" cy="100" r="150" fill="rgba(255,255,255,0.1)"/><circle cx="1100" cy="530" r="200" fill="rgba(255,255,255,0.08)"/><circle cx="900" cy="150" r="100" fill="rgba(255,255,255,0.05)"/><rect width="400" height="270" x="150" y="180" fill="#1e1e1e" opacity=".9" rx="10"/><rect width="400" height="35" x="150" y="180" fill="#2d2d2d" rx="10"/><circle cx="175" cy="197" r="8" fill="#ff5f56"/><circle cx="200" cy="197" r="8" fill="#ffbd2e"/><circle cx="225" cy="197" r="8" fill="#27ca40"/><rect width="180" height="12" x="170" y="235" fill="#569cd6" rx="2"/><rect width="140" height="12" x="170" y="260" fill="#ce9178" rx="2"/><rect width="200" height="12" x="190" y="285" fill="#dcdcaa" rx="2"/><rect width="160" height="12" x="190" y="310" fill="#9cdcfe" rx="2"/><rect width="120" height="12" x="170" y="335" fill="#c586c0" rx="2"/><rect width="180" height="12" x="170" y="360" fill="#4ec9b0" rx="2"/><rect width="100" height="12" x="170" y="385" fill="#d16969" rx="2"/><polygon fill="rgba(255,255,255,0.2)" points="750 450 850 280 950 450"/><polygon fill="rgba(255,255,255,0.15)" points="900 450 1020 220 1140 450"/><polygon fill="rgba(255,255,255,0.25)" points="600 450 720 300 840 450"/><circle cx="850" cy="150" r="60" fill="url(#accent1)" opacity=".8"/><text x="600" y="520" fill="#fff" font-family="system-ui, -apple-system, sans-serif" font-size="48" font-weight="bold" text-anchor="middle">My First Blog Post</text><text x="600" y="570" fill="rgba(255,255,255,0.8)" font-family="system-ui, -apple-system, sans-serif" font-size="24" text-anchor="middle">Starting My Tech Blogging Journey</text></svg>