<svg xmlns="http://www.w3.org/2000/svg" width="1200" height="630" viewBox="0 0 1200 630"><defs><linearGradient id="a" x1="0%" x2="100%" y1="0%" y2="100%"><stop offset="0%" style="stop-color:#6366f1;stop-opacity:1"/><stop offset="100%" style="stop-color:#8b5cf6;stop-opacity:1"/></linearGradient><linearGradient id="c" x1="0%" x2="100%" y1="0%" y2="100%"><stop offset="0%" style="stop-color:#818cf8;stop-opacity:.3"/><stop offset="100%" style="stop-color:#a78bfa;stop-opacity:.1"/></linearGradient><pattern id="b" width="120" height="120" x="0" y="0" patternUnits="userSpaceOnUse"><ellipse cx="60" cy="60" fill="none" stroke="rgba(255,255,255,0.08)" rx="40" ry="15"/><ellipse cx="60" cy="60" fill="none" stroke="rgba(255,255,255,0.08)" rx="40" ry="15" transform="rotate(60 60 60)"/><ellipse cx="60" cy="60" fill="none" stroke="rgba(255,255,255,0.08)" rx="40" ry="15" transform="rotate(120 60 60)"/><circle cx="60" cy="60" r="5" fill="rgba(255,255,255,0.15)"/></pattern><filter id="d"><feGaussianBlur result="coloredBlur" stdDeviation="3"/><feMerge><feMergeNode in="coloredBlur"/><feMergeNode in="SourceGraphic"/></feMerge></filter></defs><path fill="url(#a)" d="M0 0h1200v630H0z"/><path fill="url(#b)" d="M0 0h1200v630H0z"/><circle cx="100" cy="100" r="150" fill="url(#c)"/><circle cx="1100" cy="530" r="200" fill="url(#c)"/><g filter="url(#d)" transform="translate(900 280)"><ellipse cx="60" cy="60" fill="none" stroke="rgba(255,255,255,0.4)" stroke-width="2" rx="20"/><ellipse cx="60" cy="60" fill="none" stroke="rgba(255,255,255,0.4)" stroke-width="2" rx="50" ry="20" transform="rotate(60 60 60)"/><ellipse cx="60" cy="60" fill="none" stroke="rgba(255,255,255,0.4)" stroke-width="2" rx="50" ry="20" transform="rotate(120 60 60)"/><circle cx="60" cy="60" r="8" fill="rgba(255,255,255,0.8)"/></g><g stroke="rgba(255,255,255,0.3)" stroke-width="3" opacity=".3" transform="translate(150 380)"><circle cx="40" cy="40" r="30" fill="none"/><circle cx="40" cy="40" r="15" fill="none"/><path d="M40 10V5M40 70v5M10 40H5M70 40h5"/></g><text x="600" y="260" fill="#fff" filter="url(#d)" font-family="system-ui, -apple-system, sans-serif" font-size="52" font-weight="800" text-anchor="middle">React Compiler</text><text x="600" y="325" fill="#fff" filter="url(#d)" font-family="system-ui, -apple-system, sans-serif" font-size="48" font-weight="700" text-anchor="middle">End of Manual Memoization</text><text x="600" y="385" fill="rgba(255,255,255,0.9)" font-family="system-ui, -apple-system, sans-serif" font-size="26" font-weight="400" text-anchor="middle">Automatic Optimization</text><g transform="translate(550 435)"><rect width="100" height="40" fill="rgba(255,255,255,0.2)" rx="20"/><text x="50" y="26" fill="#fff" font-family="system-ui, -apple-system, sans-serif" font-size="20" font-weight="600" text-anchor="middle">2026</text></g><text x="600" y="580" fill="rgba(255,255,255,0.7)" font-family="system-ui, -apple-system, sans-serif" font-size="20" font-weight="500" text-anchor="middle">mubaidr.js.org</text><circle cx="100" cy="550" r="4" fill="rgba(255,255,255,0.4)"/><circle cx="120" cy="560" r="3" fill="rgba(255,255,255,0.3)"/><circle cx="1080" cy="100" r="4" fill="rgba(255,255,255,0.4)"/><circle cx="1100" cy="90" r="3" fill="rgba(255,255,255,0.3)"/></svg>