<svg xmlns="http://www.w3.org/2000/svg" width="1200" height="630" viewBox="0 0 1200 630"><defs><linearGradient id="bg7" x1="0%" x2="100%" y1="0%" y2="100%"><stop offset="0%" style="stop-color:#f7df1e;stop-opacity:1"/><stop offset="100%" style="stop-color:#f0db4f;stop-opacity:1"/></linearGradient></defs><rect width="1200" height="630" fill="url(#bg7)"/><g transform="translate(850, 150)"><rect width="200" height="200" fill="#323330" rx="20"/><text x="100" y="160" fill="#f7df1e" font-family="system-ui, sans-serif" font-size="100" font-weight="bold" text-anchor="middle">JS</text></g><rect width="300" height="100" x="100" y="150" fill="#323330" rx="15"/><text x="250" y="220" fill="#f7df1e" font-family="system-ui, sans-serif" font-size="48" font-weight="bold" text-anchor="middle">ES2024</text><g transform="translate(100, 280)"><rect width="200" height="80" fill="rgba(50, 51, 48, 0.9)" rx="10"/><text x="100" y="50" fill="#f7df1e" font-family="monospace" font-size="16" text-anchor="middle">Temporal API</text></g><g transform="translate(320, 280)"><rect width="200" height="80" fill="rgba(50, 51, 48, 0.9)" rx="10"/><text x="100" y="50" fill="#f7df1e" font-family="monospace" font-size="16" text-anchor="middle">Decorators</text></g><g transform="translate(540, 280)"><rect width="200" height="80" fill="rgba(50, 51, 48, 0.9)" rx="10"/><text x="100" y="50" fill="#f7df1e" font-family="monospace" font-size="16" text-anchor="middle">Pattern Match</text></g><g transform="translate(100, 380)"><rect width="200" height="80" fill="rgba(50, 51, 48, 0.9)" rx="10"/><text x="100" y="50" fill="#f7df1e" font-family="monospace" font-size="16" text-anchor="middle">Records</text></g><g transform="translate(320, 380)"><rect width="200" height="80" fill="rgba(50, 51, 48, 0.9)" rx="10"/><text x="100" y="50" fill="#f7df1e" font-family="monospace" font-size="16" text-anchor="middle">Tuples</text></g><g transform="translate(540, 380)"><rect width="200" height="80" fill="rgba(50, 51, 48, 0.9)" rx="10"/><text x="100" y="50" fill="#f7df1e" font-family="monospace" font-size="16" text-anchor="middle">Pipeline |&gt;</text></g><text x="600" y="530" fill="#323330" font-family="system-ui, -apple-system, sans-serif" font-size="42" font-weight="bold" text-anchor="middle">Modern JavaScript ES2024</text><text x="600" y="580" fill="rgba(50, 51, 48, 0.8)" font-family="system-ui, -apple-system, sans-serif" font-size="24" text-anchor="middle">New Features Every Developer Should Know</text></svg>