<svg xmlns="http://www.w3.org/2000/svg" width="1200" height="630" viewBox="0 0 1200 630"><defs><linearGradient id="bg15" x1="0%" x2="100%" y1="0%" y2="100%"><stop offset="0%" style="stop-color:#1a1a2e;stop-opacity:1"/><stop offset="100%" style="stop-color:#16213e;stop-opacity:1"/></linearGradient><linearGradient id="gem" x1="0%" x2="100%" y1="0%" y2="100%"><stop offset="0%" style="stop-color:#00d9ff;stop-opacity:1"/><stop offset="100%" style="stop-color:#0f8;stop-opacity:1"/></linearGradient></defs><rect width="1200" height="630" fill="url(#bg15)"/><circle cx="150" cy="150" r="200" fill="rgba(0, 217, 255, 0.05)"/><circle cx="1050" cy="480" r="180" fill="rgba(0, 255, 136, 0.05)"/><g transform="translate(850, 120)"><polygon fill="url(#gem)" points="100 0 200 75 200 175 100 250 0 175 0 75" opacity=".9"/><polygon fill="rgba(0,0,0,0.2)" points="100 30 160 80 160 150 100 200 40 150 40 80"/><polygon fill="url(#gem)" points="100 60 130 90 130 130 100 160 70 130 70 90"/></g><g transform="translate(100, 150)"><rect width="650" height="350" fill="rgba(255,255,255,0.05)" rx="15"/><rect width="180" height="140" x="30" y="30" fill="rgba(0, 217, 255, 0.15)" rx="10"/><text x="120" y="70" fill="#00d9ff" font-family="monospace" font-size="14" text-anchor="middle">gem-researcher</text><text x="120" y="100" fill="rgba(255,255,255,0.7)" font-family="system-ui, sans-serif" font-size="12" text-anchor="middle">Codebase</text><text x="120" y="120" fill="rgba(255,255,255,0.7)" font-family="system-ui, sans-serif" font-size="12" text-anchor="middle">Exploration</text><rect width="180" height="140" x="235" y="30" fill="rgba(0, 255, 136, 0.15)" rx="10"/><text x="325" y="70" fill="#0f8" font-family="monospace" font-size="14" text-anchor="middle">gem-planner</text><text x="325" y="100" fill="rgba(255,255,255,0.7)" font-family="system-ui, sans-serif" font-size="12" text-anchor="middle">Task Planning</text><text x="325" y="120" fill="rgba(255,255,255,0.7)" font-family="system-ui, sans-serif" font-size="12" text-anchor="middle">&amp; Analysis</text><rect width="180" height="140" x="440" y="30" fill="rgba(255, 107, 107, 0.15)" rx="10"/><text x="530" y="70" fill="#ff6b6b" font-family="monospace" font-size="14" text-anchor="middle">gem-implementer</text><text x="530" y="100" fill="rgba(255,255,255,0.7)" font-family="system-ui, sans-serif" font-size="12" text-anchor="middle">Code</text><text x="530" y="120" fill="rgba(255,255,255,0.7)" font-family="system-ui, sans-serif" font-size="12" text-anchor="middle">Implementation</text><rect width="180" height="140" x="130" y="190" fill="rgba(255, 215, 0, 0.15)" rx="10"/><text x="220" y="230" fill="gold" font-family="monospace" font-size="14" text-anchor="middle">gem-reviewer</text><text x="220" y="260" fill="rgba(255,255,255,0.7)" font-family="system-ui, sans-serif" font-size="12" text-anchor="middle">Security &amp;</text><text x="220" y="280" fill="rgba(255,255,255,0.7)" font-family="system-ui, sans-serif" font-size="12" text-anchor="middle">Compliance</text><rect width="180" height="140" x="340" y="190" fill="rgba(155, 89, 182, 0.15)" rx="10"/><text x="430" y="230" fill="#9b59b6" font-family="monospace" font-size="14" text-anchor="middle">gem-devops</text><text x="430" y="260" fill="rgba(255,255,255,0.7)" font-family="system-ui, sans-serif" font-size="12" text-anchor="middle">CI/CD &amp;</text><text x="430" y="280" fill="rgba(255,255,255,0.7)" font-family="system-ui, sans-serif" font-size="12" text-anchor="middle">Deployment</text></g><text x="600" y="540" fill="#fff" font-family="system-ui, -apple-system, sans-serif" font-size="42" font-weight="bold" text-anchor="middle">Introducing gem-team</text><text x="600" y="590" fill="rgba(255,255,255,0.8)" font-family="system-ui, -apple-system, sans-serif" font-size="24" text-anchor="middle">AI-Powered Development Workflow</text></svg>